<mxfile host="app.diagrams.net" agent="Mozilla/5.0 (Macintosh; Intel Mac OS X 10_15_7) AppleWebKit/537.36 (KHTML, like Gecko) Chrome/130.0.0.0 Safari/537.36" version="24.8.4">
  <diagram name="第 1 页" id="kdjIHs1Ybzr7DbQj8N4Z">
    <mxGraphModel dx="954" dy="520" grid="0" gridSize="10" guides="1" tooltips="1" connect="1" arrows="1" fold="1" page="1" pageScale="1" pageWidth="827" pageHeight="1169" math="0" shadow="0">
      <root>
        <mxCell id="0" />
        <mxCell id="1" parent="0" />
        <mxCell id="YO3xLAx4A9Xjm7JYL_cF-1" value="Elasticsearch" style="ellipse;whiteSpace=wrap;html=1;fillColor=#f8cecc;strokeColor=#b85450;" vertex="1" parent="1">
          <mxGeometry x="330" y="220" width="120" height="80" as="geometry" />
        </mxCell>
        <mxCell id="YO3xLAx4A9Xjm7JYL_cF-2" value="业务使用" style="ellipse;whiteSpace=wrap;html=1;fillColor=#dae8fc;strokeColor=#6c8ebf;" vertex="1" parent="1">
          <mxGeometry x="150" y="220" width="120" height="80" as="geometry" />
        </mxCell>
        <mxCell id="YO3xLAx4A9Xjm7JYL_cF-14" style="rounded=0;orthogonalLoop=1;jettySize=auto;html=1;exitX=1;exitY=0;exitDx=0;exitDy=0;entryX=0;entryY=1;entryDx=0;entryDy=0;endArrow=none;endFill=0;" edge="1" parent="1" source="YO3xLAx4A9Xjm7JYL_cF-3" target="YO3xLAx4A9Xjm7JYL_cF-1">
          <mxGeometry relative="1" as="geometry" />
        </mxCell>
        <mxCell id="YO3xLAx4A9Xjm7JYL_cF-3" value="技术支持" style="ellipse;whiteSpace=wrap;html=1;fillColor=#dae8fc;strokeColor=#6c8ebf;" vertex="1" parent="1">
          <mxGeometry x="223" y="322" width="120" height="80" as="geometry" />
        </mxCell>
        <mxCell id="YO3xLAx4A9Xjm7JYL_cF-5" value="故障治理" style="ellipse;whiteSpace=wrap;html=1;fillColor=#dae8fc;strokeColor=#6c8ebf;" vertex="1" parent="1">
          <mxGeometry x="430" y="120" width="120" height="80" as="geometry" />
        </mxCell>
        <mxCell id="YO3xLAx4A9Xjm7JYL_cF-15" value="" style="rounded=0;orthogonalLoop=1;jettySize=auto;html=1;endArrow=none;endFill=0;" edge="1" parent="1" source="YO3xLAx4A9Xjm7JYL_cF-7" target="YO3xLAx4A9Xjm7JYL_cF-1">
          <mxGeometry relative="1" as="geometry" />
        </mxCell>
        <mxCell id="YO3xLAx4A9Xjm7JYL_cF-7" value="运维工具" style="ellipse;whiteSpace=wrap;html=1;fillColor=#dae8fc;strokeColor=#6c8ebf;" vertex="1" parent="1">
          <mxGeometry x="500" y="220" width="120" height="80" as="geometry" />
        </mxCell>
        <mxCell id="YO3xLAx4A9Xjm7JYL_cF-8" value="未来规划" style="ellipse;whiteSpace=wrap;html=1;" vertex="1" parent="1">
          <mxGeometry x="230" y="120" width="120" height="80" as="geometry" />
        </mxCell>
        <mxCell id="YO3xLAx4A9Xjm7JYL_cF-16" value="" style="rounded=0;orthogonalLoop=1;jettySize=auto;html=1;endArrow=none;endFill=0;" edge="1" parent="1" source="YO3xLAx4A9Xjm7JYL_cF-9" target="YO3xLAx4A9Xjm7JYL_cF-1">
          <mxGeometry relative="1" as="geometry" />
        </mxCell>
        <mxCell id="YO3xLAx4A9Xjm7JYL_cF-9" value="优化建议" style="ellipse;whiteSpace=wrap;html=1;" vertex="1" parent="1">
          <mxGeometry x="414" y="320" width="120" height="80" as="geometry" />
        </mxCell>
        <mxCell id="YO3xLAx4A9Xjm7JYL_cF-10" value="" style="endArrow=none;html=1;rounded=0;entryX=1;entryY=0.5;entryDx=0;entryDy=0;exitX=0;exitY=0.5;exitDx=0;exitDy=0;" edge="1" parent="1" source="YO3xLAx4A9Xjm7JYL_cF-1" target="YO3xLAx4A9Xjm7JYL_cF-2">
          <mxGeometry width="50" height="50" relative="1" as="geometry">
            <mxPoint x="390" y="300" as="sourcePoint" />
            <mxPoint x="410" y="210" as="targetPoint" />
          </mxGeometry>
        </mxCell>
        <mxCell id="YO3xLAx4A9Xjm7JYL_cF-11" value="" style="endArrow=none;html=1;rounded=0;entryX=0.242;entryY=0.913;entryDx=0;entryDy=0;exitX=1;exitY=0;exitDx=0;exitDy=0;entryPerimeter=0;" edge="1" parent="1" source="YO3xLAx4A9Xjm7JYL_cF-1" target="YO3xLAx4A9Xjm7JYL_cF-5">
          <mxGeometry width="50" height="50" relative="1" as="geometry">
            <mxPoint x="430" y="300" as="sourcePoint" />
            <mxPoint x="480" y="250" as="targetPoint" />
          </mxGeometry>
        </mxCell>
        <mxCell id="YO3xLAx4A9Xjm7JYL_cF-13" value="" style="endArrow=none;html=1;rounded=0;entryX=1;entryY=1;entryDx=0;entryDy=0;exitX=0;exitY=0;exitDx=0;exitDy=0;" edge="1" parent="1" source="YO3xLAx4A9Xjm7JYL_cF-1" target="YO3xLAx4A9Xjm7JYL_cF-8">
          <mxGeometry width="50" height="50" relative="1" as="geometry">
            <mxPoint x="290" y="250" as="sourcePoint" />
            <mxPoint x="340" y="200" as="targetPoint" />
          </mxGeometry>
        </mxCell>
      </root>
    </mxGraphModel>
  </diagram>
</mxfile>
